<svg width="16" height="16" viewBox="0 0 16 16" fill="none" xmlns="http://www.w3.org/2000/svg">
<path fill-rule="evenodd" clip-rule="evenodd" d="M7.532 1.46337C7.83375 1.35026 8.16625 1.35026 8.468 1.46337L13.1347 3.21337C13.3889 3.30866 13.6079 3.47928 13.7626 3.70241C13.9172 3.92554 14 4.19056 14 4.46204V8.03737C14 9.15166 13.6898 10.2439 13.104 11.1918C12.5182 12.1397 11.68 12.9057 10.6833 13.404L8.44733 14.5214C8.30845 14.5908 8.15529 14.627 8 14.627C7.84471 14.627 7.69155 14.5908 7.55267 14.5214L5.31667 13.4034C4.32003 12.905 3.48185 12.139 2.89605 11.1911C2.31025 10.2433 1.99998 9.15099 2 8.03671V4.46271C1.99983 4.19111 2.0826 3.92595 2.23725 3.70268C2.39189 3.47942 2.61102 3.3087 2.86533 3.21337L7.532 1.46337ZM8.66667 7.82137C8.92084 7.67461 9.11948 7.44808 9.23179 7.17692C9.34411 6.90575 9.36381 6.60511 9.28784 6.32161C9.21188 6.03811 9.04449 5.78759 8.81165 5.60892C8.5788 5.43024 8.2935 5.33339 8 5.33337C7.7065 5.33339 7.4212 5.43024 7.18836 5.60892C6.95551 5.78759 6.78812 6.03811 6.71216 6.32161C6.63619 6.60511 6.6559 6.90575 6.76821 7.17692C6.88052 7.44808 7.07916 7.67461 7.33333 7.82137V10C7.33333 10.1769 7.40357 10.3464 7.5286 10.4714C7.65362 10.5965 7.82319 10.6667 8 10.6667C8.17681 10.6667 8.34638 10.5965 8.4714 10.4714C8.59643 10.3464 8.66667 10.1769 8.66667 10V7.82137Z" fill="#F0F0FA"/>
</svg>
