<svg width="25" height="24" viewBox="0 0 25 24" fill="none" xmlns="http://www.w3.org/2000/svg">
<path d="M12.1667 13C14.5627 13 16.7417 13.694 18.3447 14.671C19.1447 15.161 19.8287 15.736 20.3227 16.361C20.8087 16.977 21.1667 17.713 21.1667 18.5C21.1667 19.345 20.7557 20.011 20.1637 20.486C19.6037 20.936 18.8647 21.234 18.0797 21.442C16.5017 21.859 14.3957 22 12.1667 22C9.93766 22 7.83166 21.86 6.25366 21.442C5.46866 21.234 4.72966 20.936 4.16966 20.486C3.57666 20.01 3.16666 19.345 3.16666 18.5C3.16666 17.713 3.52466 16.977 4.01066 16.361C4.50466 15.736 5.18766 15.161 5.98866 14.671C7.59166 13.694 9.77166 13 12.1667 13ZM12.1667 2C13.4927 2 14.7645 2.52678 15.7022 3.46447C16.6399 4.40215 17.1667 5.67392 17.1667 7C17.1667 8.32608 16.6399 9.59785 15.7022 10.5355C14.7645 11.4732 13.4927 12 12.1667 12C10.8406 12 9.5688 11.4732 8.63112 10.5355C7.69344 9.59785 7.16666 8.32608 7.16666 7C7.16666 5.67392 7.69344 4.40215 8.63112 3.46447C9.5688 2.52678 10.8406 2 12.1667 2Z" fill="#7A7A87"/>
</svg>
