<svg width="20" height="20" viewBox="0 0 20 20" fill="none" xmlns="http://www.w3.org/2000/svg">
<path d="M10 10.8333C11.9967 10.8333 13.8125 11.4117 15.1483 12.2258C15.815 12.6342 16.385 13.1133 16.7967 13.6342C17.2017 14.1475 17.5 14.7608 17.5 15.4167C17.5 16.1208 17.1575 16.6758 16.6642 17.0717C16.1975 17.4467 15.5817 17.695 14.9275 17.8683C13.6125 18.2158 11.8575 18.3333 10 18.3333C8.1425 18.3333 6.3875 18.2167 5.0725 17.8683C4.41833 17.695 3.8025 17.4467 3.33583 17.0717C2.84167 16.675 2.5 16.1208 2.5 15.4167C2.5 14.7608 2.79833 14.1475 3.20333 13.6342C3.615 13.1133 4.18417 12.6342 4.85167 12.2258C6.1875 11.4117 8.00417 10.8333 10 10.8333ZM10 1.66666C11.1051 1.66666 12.1649 2.10564 12.9463 2.88704C13.7277 3.66845 14.1667 4.72825 14.1667 5.83332C14.1667 6.93839 13.7277 7.9982 12.9463 8.7796C12.1649 9.561 11.1051 9.99999 10 9.99999C8.89493 9.99999 7.83512 9.561 7.05372 8.7796C6.27232 7.9982 5.83333 6.93839 5.83333 5.83332C5.83333 4.72825 6.27232 3.66845 7.05372 2.88704C7.83512 2.10564 8.89493 1.66666 10 1.66666Z" fill="#7A7A87"/>
</svg>
