<svg width="78" height="37" viewBox="0 0 78 37" fill="none" xmlns="http://www.w3.org/2000/svg">
<g clip-path="url(#clip0_1122_13698)">
<path fill-rule="evenodd" clip-rule="evenodd" d="M56.2639 14.492L56.7862 12.5428C57.0399 11.5962 57.8071 10.8731 58.7679 10.6761L59.0789 10.6124C60.1963 10.3837 61.3533 10.4406 62.4428 10.7778C63.5323 11.115 64.5192 11.7215 65.3121 12.5414C65.7912 13.0371 66.3718 13.4233 67.0142 13.6735C67.6566 13.9237 68.3455 14.032 69.0337 13.991L72.4943 13.7836C72.6981 13.7715 72.9013 13.8163 73.0811 13.9131C73.2608 14.0099 73.4101 14.1548 73.5122 14.3317C73.6143 14.5085 73.6651 14.7102 73.6591 14.9143C73.653 15.1184 73.5903 15.3168 73.4779 15.4872L70.306 20.293L70.8873 25.1707C70.9051 25.3195 70.8923 25.4704 70.8496 25.614C70.807 25.7577 70.7354 25.8911 70.6394 26.0062C70.5433 26.1212 70.4248 26.2154 70.291 26.2829C70.1572 26.3505 70.0111 26.39 69.8615 26.399L66.3071 26.6124C65.3309 26.671 64.3536 26.5177 63.4422 26.1631C62.5308 25.8084 61.7069 25.2608 61.027 24.5578C60.4681 23.9796 59.7724 23.5518 59.0042 23.3139C58.236 23.0761 57.4203 23.0359 56.6325 23.197L55.9653 23.334L54.5723 28.5326C54.5037 28.7888 54.3361 29.0072 54.1064 29.1398C53.8767 29.2724 53.6037 29.3084 53.3476 29.2397C53.0914 29.1711 52.873 29.0035 52.7403 28.7738C52.6077 28.5441 52.5718 28.2711 52.6404 28.015L56.2639 14.492Z" fill="url(#paint0_linear_1122_13698)"/>
<path fill-rule="evenodd" clip-rule="evenodd" d="M56.2639 14.492L56.7862 12.5428C57.0399 11.5962 57.8071 10.8731 58.7679 10.6761L59.0789 10.6124C60.1963 10.3837 61.3533 10.4406 62.4428 10.7778C63.5323 11.115 64.5192 11.7215 65.3121 12.5414C65.7912 13.0371 66.3718 13.4233 67.0142 13.6735C67.6566 13.9237 68.3455 14.032 69.0337 13.991L72.4943 13.7836C72.6981 13.7715 72.9013 13.8163 73.0811 13.9131C73.2608 14.0099 73.4101 14.1548 73.5122 14.3317C73.6143 14.5085 73.6651 14.7102 73.6591 14.9143C73.653 15.1184 73.5903 15.3168 73.4779 15.4872L70.306 20.293L70.8873 25.1707C70.9051 25.3195 70.8923 25.4704 70.8496 25.614C70.807 25.7577 70.7354 25.8911 70.6394 26.0062C70.5433 26.1212 70.4248 26.2154 70.291 26.2829C70.1572 26.3505 70.0111 26.39 69.8615 26.399L66.3071 26.6124C65.3309 26.671 64.3536 26.5177 63.4422 26.1631C62.5308 25.8084 61.7069 25.2608 61.027 24.5578C60.4681 23.9796 59.7724 23.5518 59.0042 23.3139C58.236 23.0761 57.4203 23.0359 56.6325 23.197L55.9653 23.334L54.5723 28.5326C54.5037 28.7888 54.3361 29.0072 54.1064 29.1398C53.8767 29.2724 53.6037 29.3084 53.3476 29.2397C53.0914 29.1711 52.873 29.0035 52.7403 28.7738C52.6077 28.5441 52.5718 28.2711 52.6404 28.015L56.2639 14.492Z" fill="url(#paint1_linear_1122_13698)" fill-opacity="0.3"/>
</g>
<g clip-path="url(#clip1_1122_13698)">
<path fill-rule="evenodd" clip-rule="evenodd" d="M21.1301 14.0999L20.6078 12.1507C20.3542 11.2041 19.5869 10.481 18.6262 10.284L18.3151 10.2203C17.1977 9.99163 16.0408 10.0485 14.9512 10.3857C13.8617 10.7229 12.8748 11.3295 12.082 12.1493C11.6029 12.645 11.0222 13.0312 10.3798 13.2814C9.73743 13.5317 9.04852 13.64 8.36034 13.5989L4.89975 13.3915C4.69593 13.3794 4.49276 13.4242 4.31299 13.521C4.13322 13.6178 3.98393 13.7628 3.88185 13.9396C3.77976 14.1164 3.7289 14.3181 3.73496 14.5222C3.74102 14.7263 3.80376 14.9247 3.91616 15.0951L7.08807 19.9009L6.5067 24.7786C6.48894 24.9274 6.50178 25.0783 6.54442 25.2219C6.58706 25.3656 6.6586 25.499 6.75467 25.6141C6.85073 25.7291 6.96928 25.8233 7.10305 25.8908C7.23682 25.9584 7.38298 25.9979 7.53257 26.0069L11.0869 26.2203C12.0631 26.2789 13.0405 26.1256 13.9519 25.771C14.8633 25.4163 15.6872 24.8687 16.367 24.1657C16.926 23.5875 17.6217 23.1597 18.3898 22.9219C19.158 22.684 19.9738 22.6438 20.7616 22.8049L21.4288 22.9419L22.8217 28.1405C22.8904 28.3967 23.058 28.6151 23.2877 28.7477C23.5174 28.8803 23.7903 28.9163 24.0465 28.8476C24.3027 28.779 24.5211 28.6114 24.6537 28.3817C24.7863 28.152 24.8222 27.8791 24.7536 27.6229L21.1301 14.0999Z" fill="url(#paint2_linear_1122_13698)"/>
<path fill-rule="evenodd" clip-rule="evenodd" d="M21.1301 14.0999L20.6078 12.1507C20.3542 11.2041 19.5869 10.481 18.6262 10.284L18.3151 10.2203C17.1977 9.99163 16.0408 10.0485 14.9512 10.3857C13.8617 10.7229 12.8748 11.3295 12.082 12.1493C11.6029 12.645 11.0222 13.0312 10.3798 13.2814C9.73743 13.5317 9.04852 13.64 8.36034 13.5989L4.89975 13.3915C4.69593 13.3794 4.49276 13.4242 4.31299 13.521C4.13322 13.6178 3.98393 13.7628 3.88185 13.9396C3.77976 14.1164 3.7289 14.3181 3.73496 14.5222C3.74102 14.7263 3.80376 14.9247 3.91616 15.0951L7.08807 19.9009L6.5067 24.7786C6.48894 24.9274 6.50178 25.0783 6.54442 25.2219C6.58706 25.3656 6.6586 25.499 6.75467 25.6141C6.85073 25.7291 6.96928 25.8233 7.10305 25.8908C7.23682 25.9584 7.38298 25.9979 7.53257 26.0069L11.0869 26.2203C12.0631 26.2789 13.0405 26.1256 13.9519 25.771C14.8633 25.4163 15.6872 24.8687 16.367 24.1657C16.926 23.5875 17.6217 23.1597 18.3898 22.9219C19.158 22.684 19.9738 22.6438 20.7616 22.8049L21.4288 22.9419L22.8217 28.1405C22.8904 28.3967 23.058 28.6151 23.2877 28.7477C23.5174 28.8803 23.7903 28.9163 24.0465 28.8476C24.3027 28.779 24.5211 28.6114 24.6537 28.3817C24.7863 28.152 24.8222 27.8791 24.7536 27.6229L21.1301 14.0999Z" fill="url(#paint3_linear_1122_13698)" fill-opacity="0.3"/>
</g>
<rect x="23.6973" y="1" width="30" height="30" rx="15" fill="url(#paint4_linear_1122_13698)"/>
<g filter="url(#filter0_d_1122_13698)">
<path d="M37.9167 11.722H36.1527V9.4H40.6887V22H37.9167V11.722Z" fill="white"/>
</g>
<rect x="23.6973" y="1" width="30" height="30" rx="15" stroke="#F0F0FA" stroke-width="2"/>
<defs>
<filter id="filter0_d_1122_13698" x="32.1528" y="8.3999" width="12.5359" height="20.6001" filterUnits="userSpaceOnUse" color-interpolation-filters="sRGB">
<feFlood flood-opacity="0" result="BackgroundImageFix"/>
<feColorMatrix in="SourceAlpha" type="matrix" values="0 0 0 0 0 0 0 0 0 0 0 0 0 0 0 0 0 0 127 0" result="hardAlpha"/>
<feOffset dy="3"/>
<feGaussianBlur stdDeviation="2"/>
<feComposite in2="hardAlpha" operator="out"/>
<feColorMatrix type="matrix" values="0 0 0 0 0 0 0 0 0 0 0 0 0 0 0 0 0 0 0.29 0"/>
<feBlend mode="normal" in2="BackgroundImageFix" result="effect1_dropShadow_1122_13698"/>
<feBlend mode="normal" in="SourceGraphic" in2="effect1_dropShadow_1122_13698" result="shape"/>
</filter>
<linearGradient id="paint0_linear_1122_13698" x1="60.9575" y1="29.7545" x2="67.5096" y2="13.9613" gradientUnits="userSpaceOnUse">
<stop stop-color="#EDB02E"/>
<stop offset="1" stop-color="#F9D386"/>
</linearGradient>
<linearGradient id="paint1_linear_1122_13698" x1="55.1971" y1="26.3921" x2="65.1971" y2="18.5" gradientUnits="userSpaceOnUse">
<stop/>
<stop offset="1" stop-opacity="0"/>
</linearGradient>
<linearGradient id="paint2_linear_1122_13698" x1="16.4366" y1="29.3624" x2="9.88443" y2="13.5693" gradientUnits="userSpaceOnUse">
<stop stop-color="#EDB02E"/>
<stop offset="1" stop-color="#F9D386"/>
</linearGradient>
<linearGradient id="paint3_linear_1122_13698" x1="22.1969" y1="26" x2="12.6969" y2="19" gradientUnits="userSpaceOnUse">
<stop/>
<stop offset="1" stop-opacity="0"/>
</linearGradient>
<linearGradient id="paint4_linear_1122_13698" x1="38.6973" y1="29.6667" x2="41.6973" y2="2.66667" gradientUnits="userSpaceOnUse">
<stop stop-color="#EDB02E"/>
<stop offset="1" stop-color="#F9D386"/>
</linearGradient>
<clipPath id="clip0_1122_13698">
<rect width="24" height="24" fill="white" transform="translate(54.2119 6.69531) rotate(15)"/>
</clipPath>
<clipPath id="clip1_1122_13698">
<rect width="24" height="24" fill="white" transform="matrix(-0.965926 0.258819 0.258819 0.965926 23.1821 6.30322)"/>
</clipPath>
</defs>
</svg>
