<svg width="25" height="24" viewBox="0 0 25 24" fill="none" xmlns="http://www.w3.org/2000/svg">
<path fill-rule="evenodd" clip-rule="evenodd" d="M11.6333 2.65C11.9795 2.39036 12.4006 2.25 12.8333 2.25C13.2661 2.25 13.6871 2.39036 14.0333 2.65L21.0333 7.9C21.2817 8.08629 21.4833 8.32786 21.6222 8.60557C21.761 8.88328 21.8333 9.18951 21.8333 9.5V19C21.8333 19.5304 21.6226 20.0391 21.2475 20.4142C20.8725 20.7893 20.3638 21 19.8333 21H5.83333C5.3029 21 4.79419 20.7893 4.41911 20.4142C4.04404 20.0391 3.83333 19.5304 3.83333 19V9.5C3.83333 9.18951 3.90562 8.88328 4.04447 8.60557C4.18333 8.32786 4.38494 8.08629 4.63333 7.9L11.6333 2.65Z" fill="#7373E5"/>
</svg>
