<svg width="25" height="24" viewBox="0 0 25 24" fill="none" xmlns="http://www.w3.org/2000/svg">
<path d="M12.5 8C14.3565 8 16.137 8.7375 17.4497 10.0503C18.7625 11.363 19.5 13.1435 19.5 15C19.5 16.8565 18.7625 18.637 17.4497 19.9497C16.137 21.2625 14.3565 22 12.5 22C10.6435 22 8.863 21.2625 7.55024 19.9497C6.23749 18.637 5.49999 16.8565 5.49999 15C5.49999 13.1435 6.23749 11.363 7.55024 10.0503C8.863 8.7375 10.6435 8 12.5 8ZM12.5 13C11.9696 13 11.4608 13.2107 11.0858 13.5858C10.7107 13.9609 10.5 14.4696 10.5 15C10.5 15.5304 10.7107 16.0391 11.0858 16.4142C11.4608 16.7893 11.9696 17 12.5 17C13.0304 17 13.5391 16.7893 13.9142 16.4142C14.2893 16.0391 14.5 15.5304 14.5 15C14.5 14.4696 14.2893 13.9609 13.9142 13.5858C13.5391 13.2107 13.0304 13 12.5 13ZM9.91999 2C10.2447 1.99997 10.5645 2.07898 10.8518 2.23021C11.1391 2.38144 11.3852 2.60034 11.569 2.868L11.656 3.008L13.391 6.044C12.1822 5.92169 10.9611 6.04636 9.80196 6.41046C8.64281 6.77455 7.56976 7.37046 6.64799 8.162L6.41599 8.368L4.05899 4.244C3.93401 4.02547 3.86605 3.77899 3.86136 3.52729C3.85667 3.27559 3.91541 3.02675 4.03215 2.80371C4.1489 2.58068 4.31991 2.39061 4.52942 2.25103C4.73892 2.11144 4.98019 2.02684 5.23099 2.005L5.35999 2H9.91999ZM19.638 2C19.9008 1.99991 20.1589 2.06884 20.3867 2.1999C20.6144 2.33096 20.8037 2.51955 20.9357 2.74678C21.0676 2.97402 21.1376 3.23192 21.1385 3.49468C21.1394 3.75744 21.0713 4.01584 20.941 4.244L18.584 8.368C17.7445 7.5968 16.7662 6.99208 15.701 6.586L13.656 3.008C13.6094 2.92655 13.5572 2.84837 13.5 2.774C13.6869 2.53307 13.9265 2.33808 14.2003 2.20393C14.4742 2.06978 14.775 2.00003 15.08 2H19.638Z" fill="#7A7A87"/>
</svg>
