<svg width="24" height="24" viewBox="0 0 24 24" fill="none" xmlns="http://www.w3.org/2000/svg">
<path fill-rule="evenodd" clip-rule="evenodd" d="M11.293 9.46417C11.4805 9.2767 11.7348 9.17139 12 9.17139C12.2652 9.17139 12.5195 9.2767 12.707 9.46417L15.536 12.2932C15.6759 12.4331 15.7711 12.6113 15.8096 12.8054C15.8482 12.9994 15.8283 13.2005 15.7525 13.3833C15.6767 13.566 15.5484 13.7222 15.3838 13.832C15.2193 13.9418 15.0258 14.0003 14.828 14.0002H9.172C8.97416 14.0003 8.78073 13.9418 8.61616 13.832C8.4516 13.7222 8.32331 13.566 8.24751 13.3833C8.17172 13.2005 8.15183 12.9994 8.19037 12.8054C8.2289 12.6113 8.32413 12.4331 8.464 12.2932L11.293 9.46417Z" fill="#22C55E"/>
</svg>
