<svg width="40" height="40" viewBox="0 0 40 40" fill="none" xmlns="http://www.w3.org/2000/svg">
<rect x="0.5" y="0.5" width="39" height="39" rx="19.5" fill="#141421"/>
<rect x="0.5" y="0.5" width="39" height="39" rx="19.5" stroke="#22222E"/>
<path fill-rule="evenodd" clip-rule="evenodd" d="M22.36 14C22.2013 14.1973 22.0819 14.4232 22.008 14.6653H21.5867C21.0562 14.6653 20.5475 14.876 20.1725 15.2511C19.7974 15.6262 19.5867 16.1349 19.5867 16.6653C19.5867 17.1958 19.7974 17.7045 20.1725 18.0795C20.5475 18.4546 21.0562 18.6653 21.5867 18.6653H22.0067C22.1 18.9693 22.2667 19.256 22.5067 19.496C22.7017 19.6912 22.9351 19.8439 23.1921 19.9443C23.4492 20.0447 23.7243 20.0907 24 20.0793V24.6667H25.3333C25.5101 24.6667 25.6797 24.7369 25.8047 24.8619C25.9298 24.987 26 25.1565 26 25.3333C26 25.5101 25.9298 25.6797 25.8047 25.8047C25.6797 25.9298 25.5101 26 25.3333 26H14.6667C14.4899 26 14.3203 25.9298 14.1953 25.8047C14.0702 25.6797 14 25.5101 14 25.3333C14 25.1565 14.0702 24.987 14.1953 24.8619C14.3203 24.7369 14.4899 24.6667 14.6667 24.6667V15.3333C14.6667 14.9797 14.8071 14.6406 15.0572 14.3905C15.3072 14.1405 15.6464 14 16 14H22.36ZM21 20.6667C20.7348 20.6667 20.4804 20.772 20.2929 20.9596C20.1054 21.1471 20 21.4015 20 21.6667C20 21.9319 20.1054 22.1862 20.2929 22.3738C20.4804 22.5613 20.7348 22.6667 21 22.6667C21.2652 22.6667 21.5196 22.5613 21.7071 22.3738C21.8946 22.1862 22 21.9319 22 21.6667C22 21.4015 21.8946 21.1471 21.7071 20.9596C21.5196 20.772 21.2652 20.6667 21 20.6667ZM24.3913 14.7813L25.8047 16.1947C25.9294 16.3197 25.9995 16.4891 25.9995 16.6657C25.9995 16.8423 25.9294 17.0117 25.8047 17.1367L24.3913 18.552C24.3299 18.6157 24.2564 18.6666 24.175 18.7016C24.0937 18.7365 24.0063 18.755 23.9177 18.7558C23.8292 18.7567 23.7414 18.7399 23.6595 18.7064C23.5775 18.6729 23.5031 18.6235 23.4404 18.5609C23.3778 18.4984 23.3282 18.424 23.2946 18.3421C23.2611 18.2602 23.2441 18.1724 23.2448 18.0839C23.2455 17.9954 23.2639 17.9079 23.2988 17.8265C23.3336 17.7451 23.3844 17.6715 23.448 17.61L23.7253 17.332H21.5867C21.4099 17.332 21.2403 17.2618 21.1153 17.1367C20.9902 17.0117 20.92 16.8421 20.92 16.6653C20.92 16.4885 20.9902 16.319 21.1153 16.1939C21.2403 16.0689 21.4099 15.9987 21.5867 15.9987H23.7233L23.4487 15.724C23.3272 15.5983 23.26 15.4299 23.2616 15.2551C23.2631 15.0803 23.3332 14.9131 23.4568 14.7895C23.5804 14.6658 23.7476 14.5957 23.9224 14.5942C24.0972 14.5927 24.2656 14.6599 24.3913 14.7813Z" fill="#EF4444"/>
</svg>
