<svg width="25" height="24" viewBox="0 0 25 24" fill="none" xmlns="http://www.w3.org/2000/svg">
<path fill-rule="evenodd" clip-rule="evenodd" d="M16.211 2.75696C16.5861 2.38202 17.0947 2.17139 17.625 2.17139C18.1553 2.17139 18.6639 2.38202 19.039 2.75696L21.868 5.58596C22.2429 5.96101 22.4536 6.46963 22.4536 6.99996C22.4536 7.53029 22.2429 8.0389 21.868 8.41396L19.039 11.243C18.6639 11.6179 18.1553 11.8285 17.625 11.8285C17.0947 11.8285 16.5861 11.6179 16.211 11.243L13.382 8.41396C13.0071 8.0389 12.7964 7.53029 12.7964 6.99996C12.7964 6.46963 13.0071 5.96101 13.382 5.58596L16.211 2.75696ZM9.625 2.99996C10.1554 2.99996 10.6641 3.21067 11.0392 3.58575C11.4143 3.96082 11.625 4.46953 11.625 4.99996V8.99996C11.625 9.53039 11.4143 10.0391 11.0392 10.4142C10.6641 10.7892 10.1554 11 9.625 11H5.625C5.09457 11 4.58586 10.7892 4.21079 10.4142C3.83571 10.0391 3.625 9.53039 3.625 8.99996V4.99996C3.625 4.46953 3.83571 3.96082 4.21079 3.58575C4.58586 3.21067 5.09457 2.99996 5.625 2.99996H9.625ZM21.625 15C21.625 14.4695 21.4143 13.9608 21.0392 13.5857C20.6641 13.2107 20.1554 13 19.625 13H15.625C15.0946 13 14.5859 13.2107 14.2108 13.5857C13.8357 13.9608 13.625 14.4695 13.625 15V19C13.625 19.5304 13.8357 20.0391 14.2108 20.4142C14.5859 20.7892 15.0946 21 15.625 21H19.625C20.1554 21 20.6641 20.7892 21.0392 20.4142C21.4143 20.0391 21.625 19.5304 21.625 19V15ZM9.625 13C10.1554 13 10.6641 13.2107 11.0392 13.5857C11.4143 13.9608 11.625 14.4695 11.625 15V19C11.625 19.5304 11.4143 20.0391 11.0392 20.4142C10.6641 20.7892 10.1554 21 9.625 21H5.625C5.09457 21 4.58586 20.7892 4.21079 20.4142C3.83571 20.0391 3.625 19.5304 3.625 19V15C3.625 14.4695 3.83571 13.9608 4.21079 13.5857C4.58586 13.2107 5.09457 13 5.625 13H9.625Z" fill="#7373E5"/>
</svg>
