<svg width="40" height="40" viewBox="0 0 40 40" fill="none" xmlns="http://www.w3.org/2000/svg">
<rect x="0.5" y="0.5" width="39" height="39" rx="19.5" fill="#141421"/>
<rect x="0.5" y="0.5" width="39" height="39" rx="19.5" stroke="#22222E"/>
<path d="M22.5 25.8337C22.5001 26.2541 22.3413 26.6591 22.0554 26.9674C21.7695 27.2758 21.3776 27.4646 20.9583 27.4962L20.8333 27.5003H19.1667C18.7462 27.5005 18.3412 27.3417 18.0329 27.0557C17.7246 26.7698 17.5357 26.378 17.5042 25.9587L17.5 25.8337H22.5ZM20 11.667C21.5125 11.667 22.9659 12.2544 24.0535 13.3054C25.1412 14.3564 25.7781 15.7887 25.83 17.3003L25.8333 17.5003V20.637L27.3517 23.6737C27.4179 23.8062 27.4511 23.9527 27.4483 24.1009C27.4455 24.249 27.4069 24.3942 27.3357 24.5241C27.2645 24.6541 27.1629 24.7648 27.0396 24.8469C26.9162 24.9289 26.7748 24.9799 26.6275 24.9953L26.5317 25.0003H13.4683C13.3201 25.0004 13.1741 24.9645 13.0429 24.8957C12.9116 24.827 12.7989 24.7274 12.7145 24.6056C12.6301 24.4838 12.5765 24.3433 12.5583 24.1963C12.5401 24.0492 12.5579 23.8999 12.61 23.7612L12.6483 23.6737L14.1667 20.637V17.5003C14.1667 15.9532 14.7813 14.4695 15.8752 13.3755C16.9692 12.2816 18.4529 11.667 20 11.667Z" fill="#F0F0FA"/>
</svg>
