<svg width="16" height="16" viewBox="0 0 16 16" fill="none" xmlns="http://www.w3.org/2000/svg">
<path d="M8.66667 8.66667C9.37391 8.66667 10.0522 8.94762 10.5523 9.44771C11.0524 9.94781 11.3333 10.6261 11.3333 11.3333V12.3333C11.3333 12.5985 11.228 12.8529 11.0404 13.0404C10.8529 13.228 10.5986 13.3333 10.3333 13.3333H2.33334C2.06812 13.3333 1.81377 13.228 1.62623 13.0404C1.43869 12.8529 1.33334 12.5985 1.33334 12.3333V11.3333C1.33334 10.6261 1.61429 9.94781 2.11438 9.44771C2.61448 8.94762 3.29276 8.66667 4 8.66667H8.66667ZM12.6667 8.66667C13.1971 8.66667 13.7058 8.87738 14.0809 9.25245C14.456 9.62753 14.6667 10.1362 14.6667 10.6667V11.6667C14.6667 11.9319 14.5613 12.1862 14.3738 12.3738C14.1862 12.5613 13.9319 12.6667 13.6667 12.6667H12.6667V11.3333C12.6671 10.8158 12.5468 10.3053 12.3153 9.84234C12.0839 9.37942 11.7476 8.97687 11.3333 8.66667H12.6667ZM6.33334 2C7.12899 2 7.89205 2.31607 8.45466 2.87868C9.01727 3.44129 9.33334 4.20435 9.33334 5C9.33334 5.79565 9.01727 6.55871 8.45466 7.12132C7.89205 7.68393 7.12899 8 6.33334 8C5.53769 8 4.77462 7.68393 4.21202 7.12132C3.64941 6.55871 3.33334 5.79565 3.33334 5C3.33334 4.20435 3.64941 3.44129 4.21202 2.87868C4.77462 2.31607 5.53769 2 6.33334 2ZM12 4C12.5304 4 13.0391 4.21071 13.4142 4.58579C13.7893 4.96086 14 5.46957 14 6C14 6.53043 13.7893 7.03914 13.4142 7.41421C13.0391 7.78929 12.5304 8 12 8C11.4696 8 10.9609 7.78929 10.5858 7.41421C10.2107 7.03914 10 6.53043 10 6C10 5.46957 10.2107 4.96086 10.5858 4.58579C10.9609 4.21071 11.4696 4 12 4Z" fill="#7A7A87"/>
</svg>
