<svg width="88" height="80" viewBox="0 0 88 80" fill="none" xmlns="http://www.w3.org/2000/svg">
<path d="M0 16H88V80H0V16Z" fill="url(#paint0_linear_982_13552)"/>
<path d="M57.9884 0L88 16H0V0H57.9884Z" fill="#22222E"/>
<path d="M17.76 38.936C17.824 37.5067 18.1867 36.312 18.848 35.352C19.5307 34.3707 20.4373 33.6347 21.568 33.144C22.72 32.632 24.0427 32.376 25.536 32.376C27.0933 32.376 28.416 32.664 29.504 33.24C30.592 33.816 31.4133 34.584 31.968 35.544C32.544 36.504 32.832 37.56 32.832 38.712C32.832 39.5867 32.6613 40.3547 32.32 41.016C31.9787 41.656 31.5307 42.1893 30.976 42.616C30.4213 43.0213 29.8667 43.3307 29.312 43.544V43.672C30.1013 43.9067 30.784 44.248 31.36 44.696C31.9573 45.144 32.416 45.7093 32.736 46.392C33.0773 47.0747 33.248 47.9067 33.248 48.888C33.248 50.1467 32.9493 51.256 32.352 52.216C31.776 53.1547 30.9227 53.8907 29.792 54.424C28.6827 54.9573 27.3173 55.224 25.696 55.224C24.096 55.224 22.688 54.9893 21.472 54.52C20.256 54.0507 19.296 53.304 18.592 52.28C17.888 51.2347 17.504 49.8587 17.44 48.152H21.664C21.7067 49.304 22.0373 50.1573 22.656 50.712C23.2747 51.2667 24.256 51.544 25.6 51.544C26.368 51.544 26.9973 51.4267 27.488 51.192C27.9787 50.9573 28.3413 50.616 28.576 50.168C28.8107 49.72 28.928 49.176 28.928 48.536C28.928 47.2987 28.5227 46.4773 27.712 46.072C26.9227 45.6667 25.6747 45.464 23.968 45.464H23.072V42.008H24C24.896 41.9867 25.6853 41.9013 26.368 41.752C27.0507 41.5813 27.5733 41.304 27.936 40.92C28.32 40.5147 28.512 39.96 28.512 39.256C28.512 38.3387 28.256 37.5813 27.744 36.984C27.232 36.3653 26.4533 36.056 25.408 36.056C24.64 36.056 24.0107 36.1947 23.52 36.472C23.0507 36.7493 22.688 37.1013 22.432 37.528C22.176 37.9547 22.0267 38.424 21.984 38.936H17.76Z" fill="#CFCFE5"/>
<rect y="16" width="88" height="1" fill="url(#paint1_linear_982_13552)"/>
<rect y="57" width="88" height="23" fill="url(#paint2_linear_982_13552)"/>
<defs>
<linearGradient id="paint0_linear_982_13552" x1="69.5" y1="20.3636" x2="-9.20094" y2="111.98" gradientUnits="userSpaceOnUse">
<stop stop-color="#202036"/>
<stop offset="1" stop-color="#0C0C14" stop-opacity="0"/>
</linearGradient>
<linearGradient id="paint1_linear_982_13552" x1="0" y1="16.9999" x2="88" y2="16.9999" gradientUnits="userSpaceOnUse">
<stop stop-color="white" stop-opacity="0"/>
<stop offset="0.661458" stop-color="white"/>
<stop offset="1" stop-color="white" stop-opacity="0"/>
</linearGradient>
<linearGradient id="paint2_linear_982_13552" x1="53.5" y1="76.5" x2="54.4455" y2="57" gradientUnits="userSpaceOnUse">
<stop stop-color="#090912"/>
<stop offset="1" stop-color="#090912" stop-opacity="0"/>
</linearGradient>
</defs>
</svg>
