<svg width="16" height="16" viewBox="0 0 16 16" fill="none" xmlns="http://www.w3.org/2000/svg">
<path d="M4.66666 8.66667C5.00305 8.66656 5.32704 8.7936 5.57369 9.02233C5.82035 9.25106 5.97143 9.56456 5.99666 9.9L6 10V12C6.0001 12.3364 5.87306 12.6604 5.64433 12.907C5.4156 13.1537 5.1021 13.3048 4.76666 13.33L4.66666 13.3333H2.66666C2.33028 13.3334 2.00628 13.2064 1.75963 12.9777C1.51298 12.7489 1.36189 12.4354 1.33666 12.1L1.33333 12V10C1.33322 9.66362 1.46027 9.33962 1.68899 9.09297C1.91772 8.84631 2.23122 8.69523 2.56666 8.67L2.66666 8.66667H4.66666ZM10.6667 11.3333C10.8366 11.3335 11 11.3986 11.1236 11.5152C11.2471 11.6319 11.3215 11.7913 11.3314 11.9609C11.3414 12.1306 11.2862 12.2976 11.1772 12.4279C11.0681 12.5582 10.9134 12.6419 10.7447 12.662L10.6667 12.6667H8C7.83008 12.6665 7.66664 12.6014 7.54308 12.4848C7.41953 12.3681 7.34517 12.2087 7.33521 12.0391C7.32526 11.8694 7.38044 11.7024 7.4895 11.5721C7.59856 11.4418 7.75326 11.3581 7.922 11.338L8 11.3333H10.6667ZM13.3333 8.66667C13.5101 8.66667 13.6797 8.7369 13.8047 8.86193C13.9298 8.98695 14 9.15652 14 9.33333C14 9.51014 13.9298 9.67971 13.8047 9.80474C13.6797 9.92976 13.5101 10 13.3333 10H8C7.82318 10 7.65361 9.92976 7.52859 9.80474C7.40357 9.67971 7.33333 9.51014 7.33333 9.33333C7.33333 9.15652 7.40357 8.98695 7.52859 8.86193C7.65361 8.7369 7.82318 8.66667 8 8.66667H13.3333ZM4.66666 2C5.02028 2 5.35942 2.14048 5.60947 2.39052C5.85952 2.64057 6 2.97971 6 3.33333V5.33333C6 5.68696 5.85952 6.02609 5.60947 6.27614C5.35942 6.52619 5.02028 6.66667 4.66666 6.66667H2.66666C2.31304 6.66667 1.9739 6.52619 1.72385 6.27614C1.4738 6.02609 1.33333 5.68696 1.33333 5.33333V3.33333C1.33333 2.97971 1.4738 2.64057 1.72385 2.39052C1.9739 2.14048 2.31304 2 2.66666 2H4.66666ZM10.6667 4.66667C10.8366 4.66686 11 4.73192 11.1236 4.84857C11.2471 4.96521 11.3215 5.12464 11.3314 5.29426C11.3414 5.46389 11.2862 5.63092 11.1772 5.76122C11.0681 5.89152 10.9134 5.97526 10.7447 5.99533L10.6667 6H8C7.83008 5.99981 7.66664 5.93475 7.54308 5.8181C7.41953 5.70145 7.34517 5.54203 7.33521 5.3724C7.32526 5.20278 7.38044 5.03575 7.4895 4.90544C7.59856 4.77514 7.75326 4.6914 7.922 4.67133L8 4.66667H10.6667ZM13.3333 2C13.5032 2.00019 13.6667 2.06525 13.7902 2.1819C13.9138 2.29855 13.9882 2.45797 13.9981 2.6276C14.0081 2.79722 13.9529 2.96425 13.8438 3.09455C13.7348 3.22486 13.5801 3.3086 13.4113 3.32867L13.3333 3.33333H8C7.83008 3.33314 7.66664 3.26808 7.54308 3.15143C7.41953 3.03479 7.34517 2.87536 7.33521 2.70574C7.32526 2.53611 7.38044 2.36908 7.4895 2.23878C7.59856 2.10848 7.75326 2.02474 7.922 2.00467L8 2H13.3333Z" fill="#CFCFE5"/>
</svg>
