<svg width="54" height="54" viewBox="0 0 54 54" fill="none" xmlns="http://www.w3.org/2000/svg">
<mask id="path-1-outside-1_928_21858" maskUnits="userSpaceOnUse" x="0.333252" y="0.333374" width="54" height="54" fill="black">
<rect fill="white" x="0.333252" y="0.333374" width="54" height="54"/>
<path d="M26.9999 5.33337C38.9664 5.33337 48.6666 15.0335 48.6666 27C48.6666 38.9665 38.9664 48.6667 26.9999 48.6667C15.0334 48.6667 5.33325 38.9665 5.33325 27C5.33325 15.0335 15.0334 5.33337 26.9999 5.33337ZM34.6591 19.1589L23.9341 29.8839L19.3408 25.2884C19.1396 25.0871 18.9007 24.9274 18.6379 24.8184C18.375 24.7094 18.0932 24.6532 17.8086 24.6531C17.2338 24.6529 16.6826 24.881 16.276 25.2873C15.8694 25.6936 15.6409 26.2447 15.6407 26.8194C15.6405 27.3942 15.8687 27.9455 16.2749 28.352L22.2506 34.3277C22.4719 34.5491 22.7347 34.7248 23.0239 34.8446C23.3132 34.9645 23.6232 35.0262 23.9363 35.0262C24.2493 35.0262 24.5593 34.9645 24.8486 34.8446C25.1378 34.7248 25.4006 34.5491 25.6219 34.3277L37.7249 22.2247C38.1315 21.8182 38.3599 21.2667 38.3599 20.6918C38.3599 20.1168 38.1315 19.5654 37.7249 19.1589C37.3184 18.7523 36.767 18.5239 36.192 18.5239C35.617 18.5239 35.0656 18.7523 34.6591 19.1589Z"/>
</mask>
<path d="M26.9999 5.33337C38.9664 5.33337 48.6666 15.0335 48.6666 27C48.6666 38.9665 38.9664 48.6667 26.9999 48.6667C15.0334 48.6667 5.33325 38.9665 5.33325 27C5.33325 15.0335 15.0334 5.33337 26.9999 5.33337ZM34.6591 19.1589L23.9341 29.8839L19.3408 25.2884C19.1396 25.0871 18.9007 24.9274 18.6379 24.8184C18.375 24.7094 18.0932 24.6532 17.8086 24.6531C17.2338 24.6529 16.6826 24.881 16.276 25.2873C15.8694 25.6936 15.6409 26.2447 15.6407 26.8194C15.6405 27.3942 15.8687 27.9455 16.2749 28.352L22.2506 34.3277C22.4719 34.5491 22.7347 34.7248 23.0239 34.8446C23.3132 34.9645 23.6232 35.0262 23.9363 35.0262C24.2493 35.0262 24.5593 34.9645 24.8486 34.8446C25.1378 34.7248 25.4006 34.5491 25.6219 34.3277L37.7249 22.2247C38.1315 21.8182 38.3599 21.2667 38.3599 20.6918C38.3599 20.1168 38.1315 19.5654 37.7249 19.1589C37.3184 18.7523 36.767 18.5239 36.192 18.5239C35.617 18.5239 35.0656 18.7523 34.6591 19.1589Z" fill="#22C55E"/>
<path d="M34.6591 19.1589L31.1236 15.6233L34.6591 19.1589ZM23.9341 29.8839L20.3977 33.4186L23.9333 36.9558L27.4696 33.4194L23.9341 29.8839ZM19.3408 25.2884L15.804 28.8227L15.8044 28.8231L19.3408 25.2884ZM17.8086 24.6531L17.8068 29.6531L17.8086 24.6531ZM16.2749 28.352L12.7381 31.8863L12.7394 31.8876L16.2749 28.352ZM22.2506 34.3277L25.7869 30.793L25.7861 30.7922L22.2506 34.3277ZM25.6219 34.3277L22.0864 30.7922L22.0856 30.793L25.6219 34.3277ZM36.192 18.5239V13.5239V18.5239ZM26.9999 10.3334C36.205 10.3334 43.6666 17.795 43.6666 27H53.6666C53.6666 12.2721 41.7278 0.333374 26.9999 0.333374V10.3334ZM43.6666 27C43.6666 36.2051 36.205 43.6667 26.9999 43.6667V53.6667C41.7278 53.6667 53.6666 41.728 53.6666 27H43.6666ZM26.9999 43.6667C17.7948 43.6667 10.3333 36.2051 10.3333 27H0.333252C0.333252 41.728 12.272 53.6667 26.9999 53.6667V43.6667ZM10.3333 27C10.3333 17.795 17.7948 10.3334 26.9999 10.3334V0.333374C12.272 0.333374 0.333252 12.2721 0.333252 27H10.3333ZM31.1236 15.6233L20.3986 26.3483L27.4696 33.4194L38.1946 22.6944L31.1236 15.6233ZM27.4705 26.3492L22.8771 21.7537L15.8044 28.8231L20.3977 33.4186L27.4705 26.3492ZM22.8775 21.7541C22.2122 21.0883 21.4223 20.5601 20.5529 20.1996L16.7228 29.4371C16.3792 29.2946 16.0669 29.0858 15.804 28.8227L22.8775 21.7541ZM20.5529 20.1996C19.6835 19.8391 18.7516 19.6534 17.8104 19.6531L17.8068 29.6531C17.4348 29.653 17.0665 29.5796 16.7228 29.4371L20.5529 20.1996ZM17.8104 19.6531C15.9095 19.6524 14.0863 20.4069 12.7417 21.7505L19.8103 28.8241C19.2788 29.3552 18.5582 29.6534 17.8068 29.6531L17.8104 19.6531ZM12.7417 21.7505C11.3972 23.0941 10.6414 24.9168 10.6407 26.8177L20.6407 26.8212C20.6405 27.5725 20.3417 28.293 19.8103 28.8241L12.7417 21.7505ZM10.6407 26.8177C10.6401 28.7185 11.3945 30.5418 12.7381 31.8863L19.8117 24.8178C20.3428 25.3492 20.641 26.0699 20.6407 26.8212L10.6407 26.8177ZM12.7394 31.8876L18.7151 37.8632L25.7861 30.7922L19.8105 24.8165L12.7394 31.8876ZM18.7142 37.8624C19.3999 38.5484 20.214 39.0925 21.11 39.4638L24.9379 30.2255C25.2554 30.357 25.544 30.5499 25.7869 30.793L18.7142 37.8624ZM21.11 39.4638C22.006 39.8351 22.9664 40.0262 23.9363 40.0262V30.0262C24.28 30.0262 24.6203 30.0939 24.9379 30.2255L21.11 39.4638ZM23.9363 40.0262C24.9061 40.0262 25.8665 39.8351 26.7625 39.4638L22.9346 30.2255C23.2522 30.0939 23.5925 30.0262 23.9363 30.0262V40.0262ZM26.7625 39.4638C27.6586 39.0925 28.4726 38.5484 29.1583 37.8624L22.0856 30.793C22.3285 30.5499 22.6171 30.357 22.9346 30.2255L26.7625 39.4638ZM29.1575 37.8632L41.2605 25.7602L34.1894 18.6892L22.0864 30.7922L29.1575 37.8632ZM41.2605 25.7602C42.6047 24.416 43.3599 22.5928 43.3599 20.6918H33.3599C33.3599 19.9407 33.6582 19.2203 34.1894 18.6892L41.2605 25.7602ZM43.3599 20.6918C43.3599 18.7908 42.6047 16.9676 41.2605 15.6233L34.1894 22.6944C33.6582 22.1633 33.3599 21.4429 33.3599 20.6918H43.3599ZM41.2605 15.6233C39.9162 14.2791 38.093 13.5239 36.192 13.5239V23.5239C35.4409 23.5239 34.7205 23.2255 34.1894 22.6944L41.2605 15.6233ZM36.192 13.5239C34.291 13.5239 32.4678 14.2791 31.1236 15.6233L38.1946 22.6944C37.6635 23.2255 36.9431 23.5239 36.192 23.5239V13.5239Z" fill="#0D0D19" mask="url(#path-1-outside-1_928_21858)"/>
</svg>
