<svg width="16" height="16" viewBox="0 0 16 16" fill="none" xmlns="http://www.w3.org/2000/svg">
<path d="M8.00001 1.33333C11.682 1.33333 14.6667 4.318 14.6667 8C14.6667 11.682 11.682 14.6667 8.00001 14.6667C4.31801 14.6667 1.33334 11.682 1.33334 8C1.33334 4.318 4.31801 1.33333 8.00001 1.33333ZM8.00001 4C7.8232 4 7.65363 4.07024 7.52861 4.19526C7.40358 4.32029 7.33334 4.48985 7.33334 4.66667V8C7.33338 8.1768 7.40364 8.34634 7.52868 8.47133L9.52868 10.4713C9.65441 10.5928 9.82281 10.66 9.99761 10.6584C10.1724 10.6569 10.3396 10.5868 10.4632 10.4632C10.5868 10.3396 10.6569 10.1724 10.6585 9.9976C10.66 9.8228 10.5928 9.6544 10.4713 9.52867L8.66668 7.724V4.66667C8.66668 4.48985 8.59644 4.32029 8.47141 4.19526C8.34639 4.07024 8.17682 4 8.00001 4Z" fill="#EF4444"/>
</svg>
