<svg width="16" height="16" viewBox="0 0 16 16" fill="none" xmlns="http://www.w3.org/2000/svg">
<path d="M6.74259 2.994L6.60725 5.09L6.59392 5.368L6.53392 5.37466C3.57525 5.72133 1.33325 8.244 1.33325 11.3333C1.33325 11.638 1.35592 11.94 1.40125 12.238C1.58725 13.468 1.72725 13.5873 2.58259 12.57C2.79457 12.3226 3.02645 12.0929 3.27592 11.8833C4.1712 11.1433 5.28462 10.7175 6.44525 10.6713L6.59592 10.668L6.63659 11.4873L6.74725 13.0507C6.80059 13.5867 7.36459 13.9527 7.88325 13.66C8.11792 13.528 8.34659 13.3867 8.57659 13.2467C9.76792 12.5013 10.8833 11.6447 11.9699 10.7547C12.6099 10.2213 13.1699 9.716 13.6473 9.256C13.8673 9.04066 14.0873 8.82533 14.2999 8.60266C14.6079 8.28 14.6386 7.746 14.3159 7.408C13.5733 6.63133 12.5239 5.65866 11.2179 4.62666C10.1593 3.79866 9.06459 3.02533 7.90459 2.346C7.34659 2.028 6.79325 2.464 6.74259 2.994Z" fill="#F0F0FA"/>
</svg>
