<svg width="32" height="32" viewBox="0 0 32 32" fill="none" xmlns="http://www.w3.org/2000/svg">
<rect x="1" y="1" width="30" height="30" rx="15" fill="url(#paint0_linear_1127_3948)"/>
<g filter="url(#filter0_d_1127_3948)">
<path d="M11.5738 13.09C11.6098 12.25 11.8138 11.548 12.1858 10.984C12.5698 10.42 13.0858 9.994 13.7338 9.706C14.3818 9.418 15.1378 9.274 16.0018 9.274C16.9138 9.274 17.6818 9.436 18.3058 9.76C18.9298 10.072 19.4038 10.498 19.7278 11.038C20.0518 11.566 20.2138 12.16 20.2138 12.82C20.2138 13.336 20.1118 13.78 19.9078 14.152C19.7038 14.512 19.4458 14.806 19.1338 15.034C18.8338 15.25 18.5338 15.406 18.2338 15.502V15.574C18.6658 15.718 19.0498 15.916 19.3858 16.168C19.7218 16.408 19.9798 16.72 20.1598 17.104C20.3518 17.476 20.4478 17.938 20.4478 18.49C20.4478 19.21 20.2798 19.846 19.9438 20.398C19.6078 20.938 19.1158 21.364 18.4678 21.676C17.8318 21.976 17.0578 22.126 16.1458 22.126C15.2338 22.126 14.4238 21.994 13.7158 21.73C13.0198 21.466 12.4678 21.034 12.0598 20.434C11.6638 19.834 11.4478 19.042 11.4118 18.058H14.1298C14.1538 18.646 14.3158 19.078 14.6158 19.354C14.9278 19.618 15.4078 19.75 16.0558 19.75C16.4278 19.75 16.7338 19.69 16.9738 19.57C17.2138 19.45 17.3938 19.282 17.5138 19.066C17.6338 18.838 17.6938 18.568 17.6938 18.256C17.6938 17.656 17.4898 17.254 17.0818 17.05C16.6858 16.834 16.0558 16.726 15.1918 16.726H14.6518V14.584H15.1918C15.6118 14.584 15.9898 14.548 16.3258 14.476C16.6618 14.392 16.9318 14.254 17.1358 14.062C17.3398 13.858 17.4418 13.57 17.4418 13.198C17.4418 12.718 17.3098 12.34 17.0458 12.064C16.7938 11.788 16.4218 11.65 15.9298 11.65C15.5578 11.65 15.2578 11.716 15.0298 11.848C14.8018 11.98 14.6278 12.16 14.5078 12.388C14.3998 12.604 14.3338 12.838 14.3098 13.09H11.5738Z" fill="white"/>
</g>
<rect x="1" y="1" width="30" height="30" rx="15" stroke="#F0F0FA" stroke-width="2"/>
<defs>
<filter id="filter0_d_1127_3948" x="7.41183" y="8.27393" width="17.036" height="20.8521" filterUnits="userSpaceOnUse" color-interpolation-filters="sRGB">
<feFlood flood-opacity="0" result="BackgroundImageFix"/>
<feColorMatrix in="SourceAlpha" type="matrix" values="0 0 0 0 0 0 0 0 0 0 0 0 0 0 0 0 0 0 127 0" result="hardAlpha"/>
<feOffset dy="3"/>
<feGaussianBlur stdDeviation="2"/>
<feComposite in2="hardAlpha" operator="out"/>
<feColorMatrix type="matrix" values="0 0 0 0 0 0 0 0 0 0 0 0 0 0 0 0 0 0 0.29 0"/>
<feBlend mode="normal" in2="BackgroundImageFix" result="effect1_dropShadow_1127_3948"/>
<feBlend mode="normal" in="SourceGraphic" in2="effect1_dropShadow_1127_3948" result="shape"/>
</filter>
<linearGradient id="paint0_linear_1127_3948" x1="16" y1="29.6667" x2="19" y2="2.66667" gradientUnits="userSpaceOnUse">
<stop stop-color="#87641A"/>
<stop offset="1" stop-color="#F7D285"/>
</linearGradient>
</defs>
</svg>
