<svg width="16" height="16" viewBox="0 0 16 16" fill="none" xmlns="http://www.w3.org/2000/svg">
<path d="M8 1.33333C11.682 1.33333 14.6667 4.318 14.6667 8C14.6667 11.682 11.682 14.6667 8 14.6667C4.318 14.6667 1.33334 11.682 1.33334 8C1.33334 4.318 4.318 1.33333 8 1.33333ZM8 3.99999C7.82319 3.99999 7.65362 4.07023 7.5286 4.19526C7.40357 4.32028 7.33334 4.48985 7.33334 4.66666V8C7.33337 8.17679 7.40364 8.34633 7.52867 8.47133L9.52867 10.4713C9.6544 10.5928 9.82281 10.66 9.9976 10.6584C10.1724 10.6569 10.3396 10.5868 10.4632 10.4632C10.5868 10.3396 10.6569 10.1724 10.6585 9.9976C10.66 9.8228 10.5928 9.6544 10.4713 9.52866L8.66667 7.724V4.66666C8.66667 4.48985 8.59643 4.32028 8.47141 4.19526C8.34638 4.07023 8.17681 3.99999 8 3.99999Z" fill="#CFCFE5"/>
</svg>
