<svg width="32" height="32" viewBox="0 0 32 32" fill="none" xmlns="http://www.w3.org/2000/svg">
<path d="M16 2.66663C23.364 2.66663 29.3333 8.63596 29.3333 16C29.3333 23.364 23.364 29.3333 16 29.3333C8.63596 29.3333 2.66663 23.364 2.66663 16C2.66663 8.63596 8.63596 2.66663 16 2.66663ZM20.7133 11.1746L14.1133 17.7746L11.2866 14.9466C11.1628 14.8227 11.0159 14.7245 10.8541 14.6574C10.6923 14.5903 10.5189 14.5558 10.3438 14.5557C9.99007 14.5556 9.65081 14.6959 9.40063 14.946C9.15044 15.196 9.00981 15.5351 9.00969 15.8888C9.00956 16.2425 9.14995 16.5818 9.39996 16.832L13.0773 20.5093C13.2135 20.6456 13.3752 20.7537 13.5532 20.8274C13.7312 20.9012 13.922 20.9391 14.1146 20.9391C14.3073 20.9391 14.4981 20.9012 14.6761 20.8274C14.854 20.7537 15.0158 20.6456 15.152 20.5093L22.6 13.0613C22.8501 12.8111 22.9907 12.4718 22.9907 12.118C22.9907 11.7641 22.8501 11.4248 22.6 11.1746C22.3498 10.9244 22.0104 10.7839 21.6566 10.7839C21.3028 10.7839 20.9635 10.9244 20.7133 11.1746Z" fill="#7A7A87"/>
</svg>
